<svg width="250" height="250" viewBox="0 0 100 100" fill="none" xmlns="http://www.w3.org/2000/svg">
<path d="M40.7188 39C40.7188 45.4721 35.4721 50.7188 29 50.7188C22.5279 50.7188 17.2812 45.4721 17.2812 39C17.2812 32.5279 22.5279 27.2812 29 27.2812C35.4721 27.2812 40.7188 32.5279 40.7188 39Z" fill="#FFDD63"/>
<path fill-rule="evenodd" clip-rule="evenodd" d="M29 53.8437C29.4315 53.8437 29.7812 54.2985 29.7812 54.8594L29.7812 62.9844C29.7812 63.5453 29.4315 64 29 64C28.5685 64 28.2188 63.5453 28.2188 62.9844L28.2188 54.8594C28.2188 54.2985 28.5685 53.8437 29 53.8437Z" fill="#FFDD63"/>
<path fill-rule="evenodd" clip-rule="evenodd" d="M43.8437 39C43.8437 38.5685 44.2985 38.2188 44.8594 38.2188L52.9844 38.2188C53.5453 38.2188 54 38.5685 54 39C54 39.4315 53.5453 39.7812 52.9844 39.7812L44.8594 39.7812C44.2985 39.7812 43.8437 39.4315 43.8437 39Z" fill="#FFDD63"/>
<path fill-rule="evenodd" clip-rule="evenodd" d="M49.0711 59.9853C48.6806 60.3758 48.0474 60.3758 47.6569 59.9853L41.2929 53.6213C40.9024 53.2308 40.9024 52.5976 41.2929 52.2071C41.6835 51.8166 42.3166 51.8166 42.7072 52.2071L49.0711 58.5711C49.4616 58.9616 49.4616 59.5948 49.0711 59.9853Z" fill="#FFDD63"/>
<path d="M20.7317 70.9634C20.7317 66.1814 24.6082 62.3049 29.3902 62.3049H81.3414C86.1234 62.3049 90 66.1814 90 70.9634C90 75.7454 86.1234 79.6219 81.3414 79.6219H29.3902C24.6082 79.6219 20.7317 75.7454 20.7317 70.9634Z" fill="#EFEFEF"/>
<path d="M46.7073 65.7683C46.7073 73.4194 40.5048 79.6219 32.8537 79.6219C25.2025 79.6219 19 73.4194 19 65.7683C19 58.1171 25.2025 51.9146 32.8537 51.9146C40.5048 51.9146 46.7073 58.1171 46.7073 65.7683Z" fill="#EFEFEF"/>
<path d="M62.2927 49.3171C62.2927 58.881 54.5396 66.6341 44.9756 66.6341C35.4117 66.6341 27.6586 58.881 27.6586 49.3171C27.6586 39.7531 35.4117 32 44.9756 32C54.5396 32 62.2927 39.7531 62.2927 49.3171Z" fill="#EFEFEF"/>
<path d="M84.8049 56.2439C84.8049 64.3733 78.2147 70.9634 70.0854 70.9634C61.956 70.9634 55.3658 64.3733 55.3658 56.2439C55.3658 48.1146 61.956 41.5244 70.0854 41.5244C78.2147 41.5244 84.8049 48.1146 84.8049 56.2439Z" fill="#EFEFEF"/>
</svg>
