<svg width="100" height="101" viewBox="0 0 100 101" fill="none" xmlns="http://www.w3.org/2000/svg">
<path d="M11.9269 50.3536C11.9269 45.0328 16.2402 40.7195 21.561 40.7195H79.3659C84.6867 40.7195 89 45.0328 89 50.3536C89 55.6744 84.6867 59.9878 79.3659 59.9878H21.561C16.2402 59.9878 11.9269 55.6744 11.9269 50.3536Z" fill="#EFEFEF"/>
<path d="M40.8293 44.5731C40.8293 53.0864 33.9279 59.9878 25.4146 59.9878C16.9014 59.9878 10 53.0864 10 44.5731C10 36.0599 16.9014 29.1585 25.4146 29.1585C33.9279 29.1585 40.8293 36.0599 40.8293 44.5731Z" fill="#EFEFEF"/>
<path d="M58.1707 26.2683C58.1707 36.9099 49.544 45.5366 38.9024 45.5366C28.2609 45.5366 19.6342 36.9099 19.6342 26.2683C19.6342 15.6267 28.2609 7 38.9024 7C49.544 7 58.1707 15.6267 58.1707 26.2683Z" fill="#EFEFEF"/>
<path d="M83.2195 33.9756C83.2195 43.021 75.8868 50.3537 66.8414 50.3537C57.7961 50.3537 50.4634 43.021 50.4634 33.9756C50.4634 24.9303 57.7961 17.5976 66.8414 17.5976C75.8868 17.5976 83.2195 24.9303 83.2195 33.9756Z" fill="#EFEFEF"/>
<path d="M46.5609 66L54.5294 66L48.1856 85.7389H40L46.5609 66Z" fill="#FFDD63"/>
<path d="M46.1701 75.2889H59L46.1701 91.9483L40 100.833L46.1701 75.2889Z" fill="#FFDD63"/>
</svg>
