<svg width="100" height="100" viewBox="0 0 100 100" fill="none" xmlns="http://www.w3.org/2000/svg">
<path d="M12.9269 51.3536C12.9269 46.0328 17.2402 41.7195 22.561 41.7195H80.3659C85.6867 41.7195 90 46.0328 90 51.3536C90 56.6744 85.6867 60.9878 80.3659 60.9878H22.561C17.2402 60.9878 12.9269 56.6744 12.9269 51.3536Z" fill="#EFEFEF"/>
<path d="M41.8293 45.5731C41.8293 54.0864 34.9279 60.9878 26.4146 60.9878C17.9014 60.9878 11 54.0864 11 45.5731C11 37.0599 17.9014 30.1585 26.4146 30.1585C34.9279 30.1585 41.8293 37.0599 41.8293 45.5731Z" fill="#EFEFEF"/>
<path d="M59.1707 27.2683C59.1707 37.9099 50.544 46.5366 39.9024 46.5366C29.2609 46.5366 20.6342 37.9099 20.6342 27.2683C20.6342 16.6267 29.2609 8 39.9024 8C50.544 8 59.1707 16.6267 59.1707 27.2683Z" fill="#EFEFEF"/>
<path d="M84.2195 34.9756C84.2195 44.021 76.8868 51.3537 67.8414 51.3537C58.7961 51.3537 51.4634 44.021 51.4634 34.9756C51.4634 25.9303 58.7961 18.5976 67.8414 18.5976C76.8868 18.5976 84.2195 25.9303 84.2195 34.9756Z" fill="#EFEFEF"/>
<path d="M26.5082 72.2541C26.5082 73.499 25.499 74.5082 24.2541 74.5082C23.0092 74.5082 22 73.499 22 72.2541C22 71.0092 23.0092 70 24.2541 70C25.499 70 26.5082 71.0092 26.5082 72.2541Z" fill="#EFEFEF"/>
<path d="M40.0327 79.4672C40.0327 80.7121 39.0235 81.7213 37.7786 81.7213C36.5337 81.7213 35.5245 80.7121 35.5245 79.4672C35.5245 78.2223 36.5337 77.2131 37.7786 77.2131C39.0235 77.2131 40.0327 78.2223 40.0327 79.4672Z" fill="#EFEFEF"/>
<path d="M51.754 72.2541C51.754 73.499 50.7449 74.5082 49.4999 74.5082C48.255 74.5082 47.2458 73.499 47.2458 72.2541C47.2458 71.0092 48.255 70 49.4999 70C50.7449 70 51.754 71.0092 51.754 72.2541Z" fill="#EFEFEF"/>
<path d="M51.754 87.582C51.754 88.8269 50.7449 89.8361 49.4999 89.8361C48.255 89.8361 47.2458 88.8269 47.2458 87.582C47.2458 86.3371 48.255 85.3279 49.4999 85.3279C50.7449 85.3279 51.754 86.3371 51.754 87.582Z" fill="#EFEFEF"/>
<path d="M64.3771 78.5656C64.3771 79.8105 63.3679 80.8197 62.123 80.8197C60.8781 80.8197 59.8689 79.8105 59.8689 78.5656C59.8689 77.3207 60.8781 76.3115 62.123 76.3115C63.3679 76.3115 64.3771 77.3207 64.3771 78.5656Z" fill="#EFEFEF"/>
<path d="M77 72.2541C77 73.499 75.9908 74.5082 74.7459 74.5082C73.501 74.5082 72.4918 73.499 72.4918 72.2541C72.4918 71.0092 73.501 70 74.7459 70C75.9908 70 77 71.0092 77 72.2541Z" fill="#EFEFEF"/>
</svg>
