<svg width="100" height="100" viewBox="0 0 100 100" fill="none" xmlns="http://www.w3.org/2000/svg">
<path d="M37.1346 62.6953C37.1346 58.661 40.373 55.3905 44.3678 55.3905H87.7669C91.7617 55.3905 95.0001 58.661 95.0001 62.6953C95.0001 66.7296 91.7617 70 87.7669 70H44.3678C40.373 70 37.1346 66.7296 37.1346 62.6953Z" fill="#B9EEFF"/>
<path d="M58.6923 58.762C58.6923 64.9686 53.6125 70.0001 47.3462 70.0001C41.0798 70.0001 36 64.9686 36 58.762C36 52.5553 41.0798 47.5239 47.3462 47.5239C53.6125 47.5239 58.6923 52.5553 58.6923 58.762Z" fill="#B9EEFF"/>
<path d="M72.3076 44.7143C72.3076 52.4726 65.7038 58.7619 57.5576 58.7619C49.4114 58.7619 42.8076 52.4726 42.8076 44.7143C42.8076 36.956 49.4114 30.6667 57.5576 30.6667C65.7038 30.6667 72.3076 36.956 72.3076 44.7143Z" fill="#B9EEFF"/>
<path d="M90.4616 50.8952C90.4616 57.7225 85.1277 63.2571 78.5481 63.2571C71.9685 63.2571 66.6346 57.7225 66.6346 50.8952C66.6346 44.0679 71.9685 38.5333 78.5481 38.5333C85.1277 38.5333 90.4616 44.0679 90.4616 50.8952Z" fill="#B9EEFF"/>
<path d="M9.65857 72.3171C9.65857 67.7372 13.3713 64.0244 17.9513 64.0244H67.7073C72.2873 64.0244 76 67.7372 76 72.3171C76 76.897 72.2873 80.6098 67.7073 80.6098H17.9513C13.3713 80.6098 9.65857 76.897 9.65857 72.3171Z" fill="#EFEFEF"/>
<path d="M34.5366 67.3415C34.5366 74.6693 28.5962 80.6098 21.2683 80.6098C13.9404 80.6098 8 74.6693 8 67.3415C8 60.0136 13.9404 54.0732 21.2683 54.0732C28.5962 54.0732 34.5366 60.0136 34.5366 67.3415Z" fill="#EFEFEF"/>
<path d="M49.4635 51.5854C49.4635 60.7452 42.0379 68.1707 32.8781 68.1707C23.7182 68.1707 16.2927 60.7452 16.2927 51.5854C16.2927 42.4255 23.7182 35 32.8781 35C42.0379 35 49.4635 42.4255 49.4635 51.5854Z" fill="#EFEFEF"/>
<path d="M71.0243 58.2195C71.0243 66.0054 64.7127 72.3171 56.9268 72.3171C49.1409 72.3171 42.8292 66.0054 42.8292 58.2195C42.8292 50.4336 49.1409 44.1219 56.9268 44.1219C64.7127 44.1219 71.0243 50.4336 71.0243 58.2195Z" fill="#EFEFEF"/>
</svg>
