<svg width="100" height="100" viewBox="0 0 100 100" fill="none" xmlns="http://www.w3.org/2000/svg">
<path d="M12.9269 50.3536C12.9269 45.0328 17.2402 40.7195 22.561 40.7195H80.3659C85.6867 40.7195 90 45.0328 90 50.3536C90 55.6744 85.6867 59.9878 80.3659 59.9878H22.561C17.2402 59.9878 12.9269 55.6744 12.9269 50.3536Z" fill="#EFEFEF"/>
<path d="M41.8293 44.5731C41.8293 53.0864 34.9279 59.9878 26.4146 59.9878C17.9014 59.9878 11 53.0864 11 44.5731C11 36.0599 17.9014 29.1585 26.4146 29.1585C34.9279 29.1585 41.8293 36.0599 41.8293 44.5731Z" fill="#EFEFEF"/>
<path d="M59.1707 26.2683C59.1707 36.9099 50.544 45.5366 39.9024 45.5366C29.2609 45.5366 20.6342 36.9099 20.6342 26.2683C20.6342 15.6267 29.2609 7 39.9024 7C50.544 7 59.1707 15.6267 59.1707 26.2683Z" fill="#EFEFEF"/>
<path d="M84.2195 33.9756C84.2195 43.021 76.8868 50.3537 67.8414 50.3537C58.7961 50.3537 51.4634 43.021 51.4634 33.9756C51.4634 24.9303 58.7961 17.5976 67.8414 17.5976C76.8868 17.5976 84.2195 24.9303 84.2195 33.9756Z" fill="#EFEFEF"/>
<path d="M37.3076 82.6324C36.624 85.1836 33.3679 86.5279 30.0349 85.6348C26.7019 84.7417 24.5542 81.9495 25.2378 79.3983C25.9214 76.847 32.2516 69.9275 34.7782 67.9325C37.3049 65.9375 37.9912 80.0811 37.3076 82.6324Z" fill="#9DD7EA"/>
<path d="M55.3076 82.6324C54.624 85.1836 51.3679 86.5279 48.0349 85.6348C44.7019 84.7417 42.5542 81.9495 43.2378 79.3983C43.9214 76.847 50.2516 69.9275 52.7782 67.9325C55.3049 65.9375 55.9912 80.0811 55.3076 82.6324Z" fill="#9DD7EA"/>
<path d="M73.3076 82.6324C72.624 85.1836 69.3679 86.5279 66.0349 85.6348C62.7019 84.7417 60.5542 81.9495 61.2378 79.3983C61.9214 76.847 68.2516 69.9275 70.7782 67.9325C73.3049 65.9375 73.9912 80.0811 73.3076 82.6324Z" fill="#9DD7EA"/>
</svg>
